<svg xmlns="http://www.w3.org/2000/svg" xmlns:xlink="http://www.w3.org/1999/xlink" width="500" zoomAndPan="magnify" viewBox="0 0 375 374.999991" height="500" preserveAspectRatio="xMidYMid meet" version="1.0"><defs><g/></defs><g fill="#000000" fill-opacity="1"><g transform="translate(57.821771, 183.178524)"><g><path d="M 12.796875 -6.46875 C 12.796875 -3.75 12.257812 -1.394531 11.1875 0.59375 C 10.125 2.582031 8.644531 4.113281 6.75 5.1875 C 4.851562 6.257812 2.664062 6.835938 0.1875 6.921875 L 0.1875 1.75 C 2.414062 1.625 4.179688 0.882812 5.484375 -0.46875 C 6.785156 -1.832031 7.4375 -3.878906 7.4375 -6.609375 L 7.4375 -33.390625 L 12.796875 -33.390625 Z M 12.796875 -6.46875 "/></g></g></g><g fill="#000000" fill-opacity="1"><g transform="translate(82.225555, 183.178524)"><g><path d="M 21.75 -7.84375 L 9.59375 -7.84375 L 6.375 0 L 1.09375 0 L 15.875 -34.765625 L 16.1875 -34.765625 L 30.96875 0 L 24.8125 0 Z M 19.953125 -12.4375 L 15.78125 -22.984375 L 11.46875 -12.4375 Z M 19.953125 -12.4375 "/></g></g></g><g fill="#000000" fill-opacity="1"><g transform="translate(121.306842, 183.178524)"><g><path d="M 34.078125 -33.390625 L 34.078125 1.1875 L 33.953125 1.1875 L 9.859375 -22.15625 L 10 0 L 4.59375 0 L 4.59375 -34.546875 L 4.859375 -34.546875 L 28.859375 -10.921875 L 28.765625 -33.390625 Z M 34.078125 -33.390625 "/></g></g></g><g fill="#000000" fill-opacity="1"><g transform="translate(167.038878, 183.178524)"><g><path d="M 9.40625 -12.015625 C 9.40625 -10.734375 9.738281 -9.539062 10.40625 -8.4375 C 11.082031 -7.34375 12 -6.460938 13.15625 -5.796875 C 14.320312 -5.140625 15.59375 -4.8125 16.96875 -4.8125 C 18.40625 -4.8125 19.710938 -5.132812 20.890625 -5.78125 C 22.066406 -6.425781 22.992188 -7.296875 23.671875 -8.390625 C 24.347656 -9.492188 24.6875 -10.703125 24.6875 -12.015625 L 24.6875 -33.390625 L 29.953125 -33.390625 L 29.953125 -11.875 C 29.953125 -9.488281 29.378906 -7.367188 28.234375 -5.515625 C 27.085938 -3.671875 25.519531 -2.226562 23.53125 -1.1875 C 21.539062 -0.15625 19.351562 0.359375 16.96875 0.359375 C 14.582031 0.359375 12.40625 -0.15625 10.4375 -1.1875 C 8.46875 -2.226562 6.914062 -3.671875 5.78125 -5.515625 C 4.644531 -7.367188 4.078125 -9.488281 4.078125 -11.875 L 4.078125 -33.390625 L 9.40625 -33.390625 Z M 9.40625 -12.015625 "/></g></g></g><g fill="#000000" fill-opacity="1"><g transform="translate(208.046592, 183.178524)"><g><path d="M 21.75 -7.84375 L 9.59375 -7.84375 L 6.375 0 L 1.09375 0 L 15.875 -34.765625 L 16.1875 -34.765625 L 30.96875 0 L 24.8125 0 Z M 19.953125 -12.4375 L 15.78125 -22.984375 L 11.46875 -12.4375 Z M 19.953125 -12.4375 "/></g></g></g><g fill="#000000" fill-opacity="1"><g transform="translate(247.127877, 183.178524)"><g><path d="M 22.84375 0 L 15.328125 -11.609375 L 9.953125 -11.609375 L 9.953125 0 L 4.59375 0 L 4.59375 -33.390625 L 13.984375 -33.390625 C 17.722656 -33.390625 20.710938 -32.441406 22.953125 -30.546875 C 25.203125 -28.648438 26.328125 -26.019531 26.328125 -22.65625 C 26.328125 -20.613281 25.890625 -18.710938 25.015625 -16.953125 C 24.148438 -15.191406 22.785156 -13.835938 20.921875 -12.890625 L 29.03125 0 Z M 9.953125 -16.75 L 14.71875 -16.75 C 16.863281 -16.75 18.414062 -17.335938 19.375 -18.515625 C 20.34375 -19.691406 20.828125 -21.015625 20.828125 -22.484375 C 20.828125 -23.335938 20.640625 -24.195312 20.265625 -25.0625 C 19.898438 -25.9375 19.273438 -26.6875 18.390625 -27.3125 C 17.503906 -27.945312 16.34375 -28.265625 14.90625 -28.265625 L 9.953125 -28.265625 Z M 9.953125 -16.75 "/></g></g></g><g fill="#000000" fill-opacity="1"><g transform="translate(284.879015, 183.178524)"><g><path d="M 31.234375 -33.390625 L 18.71875 -10.828125 L 18.71875 0 L 13.390625 0 L 13.390625 -10.828125 L 1.0625 -33.390625 L 7.609375 -33.390625 L 16.234375 -16.921875 L 24.6875 -33.390625 Z M 31.234375 -33.390625 "/></g></g></g><g fill="#000000" fill-opacity="1"><g transform="translate(115.405127, 215.630758)"><g><path d="M 9.777344 -17.792969 C 9.355469 -17.792969 9.449219 -17.628906 9.238281 -17.394531 C 9.097656 -17.253906 7.378906 -16.757812 7.097656 -16.6875 C 5.148438 -16.03125 2.257812 -15.019531 0.539062 -13.75 C -0.683594 -12.832031 -0.421875 -11.800781 1.292969 -11.683594 C 1.761719 -11.660156 2.117188 -11.636719 2.421875 -11.636719 C 3.148438 -11.636719 3.621094 -11.707031 4.652344 -11.824219 C 5.3125 -11.894531 5.007812 -12.316406 4.84375 -12.386719 C 4.796875 -12.410156 4.722656 -12.410156 4.605469 -12.410156 C 4.207031 -12.410156 3.382812 -12.339844 2.5625 -12.339844 C 2.019531 -12.339844 1.457031 -12.363281 1.011719 -12.480469 C 0.777344 -12.503906 0.777344 -12.550781 0.585938 -12.597656 C 1.152344 -13.679688 5.171875 -15.207031 6.605469 -15.628906 C 7.050781 -15.773438 8.460938 -16.335938 8.910156 -16.335938 C 8.414062 -15.230469 7.570312 -8.132812 7.449219 -6.699219 C 7.402344 -6.253906 7.308594 -6.253906 6.957031 -6.0625 C 6.015625 -5.640625 3.667969 -4.699219 3.667969 -3.621094 C 3.667969 -3.382812 4.066406 -3.21875 4.371094 -3.21875 C 4.652344 -3.21875 4.867188 -3.382812 4.582031 -3.832031 C 5.054688 -4.136719 6.675781 -5.171875 7.308594 -5.21875 C 7.238281 -5.03125 6.652344 1.644531 6.605469 2.5625 C 6.558594 3.574219 6.324219 7.167969 6.628906 7.898438 C 6.722656 8.085938 6.886719 8.273438 7.097656 8.25 C 7.59375 8.203125 7.402344 7.097656 7.378906 6.160156 C 7.378906 5.054688 7.617188 2.492188 7.664062 1.222656 L 7.945312 -1.925781 C 7.96875 -2.75 8.203125 -4.207031 8.226562 -5.03125 C 8.273438 -5.992188 8.34375 -5.734375 10.199219 -6.464844 C 11.847656 -7.097656 13.492188 -7.734375 15.277344 -7.734375 C 15.558594 -7.734375 15.558594 -7.78125 15.441406 -8.25 C 15.253906 -8.34375 14.972656 -8.367188 14.644531 -8.367188 C 13.65625 -8.367188 12.222656 -8.0625 11.683594 -7.898438 L 8.4375 -6.699219 C 8.4375 -7.617188 8.578125 -8.507812 8.71875 -9.308594 C 9.074219 -11.800781 9.449219 -14.292969 9.988281 -16.6875 C 10.976562 -16.898438 11.917969 -17.207031 12.976562 -17.394531 C 14.761719 -17.816406 20.074219 -19.015625 23.058594 -19.015625 C 23.644531 -19.015625 24.164062 -18.96875 24.515625 -18.851562 C 24.796875 -18.734375 25.007812 -18.6875 25.03125 -18.285156 C 25.292969 -18.285156 25.316406 -18.308594 25.503906 -18.332031 C 25.527344 -18.523438 25.574219 -18.523438 25.574219 -18.710938 C 25.574219 -19.507812 23.929688 -19.769531 23.058594 -19.769531 C 19.839844 -19.769531 13.75 -18.546875 10.460938 -17.652344 C 10.320312 -17.628906 10.226562 -17.605469 10.152344 -17.605469 C 9.917969 -17.605469 10.082031 -17.792969 9.777344 -17.792969 Z M 9.777344 -17.792969 "/></g></g></g><g fill="#000000" fill-opacity="1"><g transform="translate(131.523489, 215.630758)"><g><path d="M 0 -2.375 C 0 -1.527344 0.0703125 -1.128906 0.941406 -1.128906 C 1.621094 -1.128906 2.351562 -3.335938 2.796875 -3.644531 C 2.796875 -2.632812 3.550781 -1.410156 4.722656 -1.410156 C 5.125 -1.410156 5.570312 -1.550781 6.039062 -1.878906 L 6.746094 -2.445312 C 7.945312 -3.597656 7.804688 -4.183594 7.449219 -4.183594 C 7.308594 -4.183594 7.144531 -4.113281 7.027344 -3.949219 C 6.699219 -3.597656 6.628906 -3.382812 6.183594 -2.984375 C 5.664062 -2.46875 5.171875 -2.1875 4.722656 -2.1875 C 4.230469 -2.1875 3.808594 -2.5625 3.621094 -3.410156 C 3.410156 -4.300781 3.808594 -5.359375 2.984375 -5.359375 C 2.679688 -5.359375 1.714844 -3.359375 1.246094 -2.632812 L 1.058594 -2.351562 C 0.941406 -2.210938 1.011719 -2.304688 0.941406 -2.234375 C 0.941406 -3.007812 1.269531 -3.902344 1.574219 -4.394531 C 2.257812 -5.570312 2.726562 -5.898438 3.078125 -5.898438 C 3.527344 -5.898438 3.808594 -5.359375 4.136719 -5.359375 C 4.746094 -5.359375 4.136719 -6.699219 3.03125 -6.699219 C 1.386719 -6.699219 0 -3.714844 0 -2.375 Z M 0 -2.375 "/></g></g></g><g fill="#000000" fill-opacity="1"><g transform="translate(138.337369, 215.630758)"><g><path d="M 0.28125 3.878906 C 0.28125 2.9375 0.964844 1.878906 1.527344 1.199219 C 1.808594 0.871094 2.375 0.164062 2.75 -0.046875 C 2.75 0.609375 2.773438 1.128906 2.609375 1.667969 C 2.398438 2.445312 1.878906 3.574219 1.246094 4.042969 C 1.082031 4.183594 0.800781 4.371094 0.585938 4.371094 C 0.421875 4.371094 0.28125 4.230469 0.28125 3.878906 Z M 0.0703125 -3.808594 C 0.0703125 -2.5625 1.714844 -2.164062 2.445312 -0.824219 C 2.09375 -0.257812 -0.46875 1.761719 -0.46875 3.878906 C -0.46875 4.722656 0 5.171875 0.65625 5.171875 C 1.363281 5.171875 2.257812 4.628906 2.9375 3.480469 C 4.511719 0.800781 3.550781 -0.5625 3.644531 -0.894531 C 3.691406 -1.082031 5.359375 -2.328125 5.617188 -2.46875 L 7.214844 -3.574219 C 7.757812 -3.878906 7.804688 -4.277344 7.425781 -4.277344 C 7.214844 -4.277344 6.910156 -4.183594 6.511719 -3.902344 L 4.324219 -2.375 C 3.972656 -2.070312 3.644531 -1.808594 3.265625 -1.550781 C 2.046875 -3.382812 0.28125 -3.3125 1.527344 -4.722656 C 1.878906 -5.125 1.808594 -5.007812 2.375 -5.148438 C 2.515625 -5.734375 2.304688 -5.96875 1.972656 -5.96875 C 1.292969 -5.96875 0.0703125 -5.007812 0.0703125 -3.808594 Z M 0.0703125 -3.808594 "/></g></g></g><g fill="#000000" fill-opacity="1"><g transform="translate(145.127755, 215.630758)"><g><path d="M -0.140625 -1.949219 C -0.140625 -1.246094 -0.0703125 3.078125 0.777344 3.078125 C 1.222656 3.078125 1.363281 2.984375 1.527344 2.492188 C 1.808594 1.621094 1.996094 0.632812 2.375 -0.351562 C 2.65625 -1.058594 3.550781 -3.289062 3.996094 -3.621094 C 3.996094 -2.960938 4.019531 -1.902344 4.113281 -1.386719 C 4.277344 -0.421875 4.628906 0 5.125 0 C 6.230469 0 7.308594 -1.972656 7.78125 -2.820312 C 8.015625 -3.289062 8.320312 -3.550781 8.179688 -4.113281 C 8.085938 -4.136719 7.992188 -4.160156 7.921875 -4.160156 C 7.734375 -4.160156 7.59375 -3.996094 7.308594 -3.503906 C 7.121094 -3.125 6.933594 -2.796875 6.722656 -2.445312 C 6.324219 -1.878906 5.828125 -0.917969 5.125 -0.753906 C 4.820312 -1.339844 4.820312 -1.878906 4.820312 -2.773438 C 4.820312 -3.195312 4.820312 -4.628906 4.300781 -4.628906 C 3.597656 -4.628906 3.382812 -4.136719 3.03125 -3.503906 C 2.019531 -1.667969 1.808594 -0.964844 1.175781 0.917969 L 0.988281 1.363281 L 0.917969 -1.269531 C 0.917969 -3.621094 1.152344 -6.394531 1.503906 -8.554688 C 1.621094 -9.355469 1.972656 -10.460938 1.808594 -11.1875 C 1.644531 -11.210938 1.527344 -11.234375 1.433594 -11.234375 C 1.199219 -11.234375 1.128906 -11.070312 0.917969 -10.460938 C 0.539062 -8.957031 0.164062 -7.425781 0.09375 -5.851562 C 0.0703125 -5.5 0.0234375 -4.960938 0 -4.605469 Z M -0.140625 -1.949219 "/></g></g></g><g fill="#000000" fill-opacity="1"><g transform="translate(152.294079, 215.630758)"><g><path d="M 1.949219 0.09375 C 3.054688 0.09375 3.949219 -0.941406 4.511719 -1.527344 C 4.890625 -1.902344 6.300781 -3.480469 6.300781 -3.925781 C 6.300781 -4.136719 6.230469 -4.207031 6.136719 -4.207031 C 5.6875 -4.207031 4.441406 -2.539062 4.347656 -2.421875 C 3.996094 -1.972656 2.773438 -0.730469 2.019531 -0.730469 C 1.386719 -0.730469 1.128906 -2.117188 1.128906 -2.820312 C 1.128906 -5.21875 2.070312 -6.277344 0.988281 -6.277344 C 0.515625 -6.277344 0.28125 -5.21875 0.210938 -4.722656 C -0.046875 -3.527344 0 -1.902344 0.5625 -0.847656 C 0.824219 -0.398438 1.316406 0.09375 1.949219 0.09375 Z M 1.199219 -9.238281 C 1.199219 -8.71875 1.503906 -8.484375 1.832031 -8.484375 C 2.304688 -8.484375 2.796875 -9.003906 2.351562 -9.871094 C 2.210938 -10.128906 2.046875 -10.226562 1.878906 -10.226562 C 1.527344 -10.226562 1.199219 -9.777344 1.199219 -9.238281 Z M 1.199219 -9.238281 "/></g></g></g><g fill="#000000" fill-opacity="1"><g transform="translate(157.651207, 215.630758)"><g><path d="M 1.175781 -0.539062 C 0.65625 -1.621094 1.738281 -3.738281 1.902344 -4.417969 C 2.726562 -3.878906 2.140625 -0.800781 1.175781 -0.539062 Z M 0 -1.339844 C 0 -0.117188 0.515625 0.492188 1.128906 0.492188 C 1.832031 0.492188 2.703125 -0.328125 3.054688 -1.949219 C 3.574219 -4.371094 2.445312 -4.773438 2.328125 -5.21875 C 2.445312 -5.40625 2.65625 -5.546875 2.726562 -5.710938 C 2.796875 -5.898438 2.65625 -6.277344 2.351562 -6.277344 C 1.199219 -6.277344 0 -2.398438 0 -1.339844 Z M 0 -1.339844 "/></g></g></g><g fill="#000000" fill-opacity="1"><g transform="translate(161.786529, 215.630758)"><g><path d="M 0.65625 -1.222656 C 1.574219 -1.222656 2.515625 -4.230469 3.289062 -4.746094 C 3.503906 -4.300781 3.171875 -3.359375 3.644531 -1.949219 C 3.855469 -1.316406 4.253906 -0.683594 4.984375 -0.683594 C 5.125 -0.683594 5.265625 -0.707031 5.429688 -0.753906 C 5.96875 -0.894531 6.722656 -1.832031 7.050781 -2.257812 C 7.191406 -2.445312 8.578125 -4.183594 7.664062 -4.183594 C 7.238281 -4.183594 5.992188 -1.386719 5.054688 -1.386719 C 4.183594 -1.386719 4.136719 -3.480469 4.136719 -4.066406 L 3.996094 -5.382812 C 3.878906 -5.640625 3.714844 -5.757812 3.550781 -5.757812 C 2.984375 -5.757812 2.28125 -4.558594 2.140625 -4.300781 L 1.011719 -2.585938 C 1.011719 -4.417969 2.539062 -6.628906 1.503906 -6.628906 C 0.609375 -6.628906 -0.847656 -1.222656 0.65625 -1.222656 Z M 0.65625 -1.222656 "/></g></g></g><g fill="#000000" fill-opacity="1"><g transform="translate(168.83538, 215.630758)"><g/></g></g><g fill="#000000" fill-opacity="1"><g transform="translate(174.920878, 215.630758)"><g><path d="M 1.597656 -2.820312 C 1.597656 -1.738281 1.761719 -0.824219 2.703125 -0.1875 C 3.171875 0.117188 3.644531 0.257812 4.136719 0.257812 C 5.265625 0.257812 6.371094 -0.445312 7.285156 -1.105469 C 8.109375 -1.714844 8.320312 -2.046875 8.980469 -2.609375 L 9.824219 -1.902344 C 10.273438 -1.480469 12.292969 0.210938 12.574219 0.210938 C 13.140625 0.210938 12.082031 -0.730469 12.011719 -0.777344 L 11.539062 -1.269531 C 11.210938 -1.691406 9.894531 -2.984375 9.566406 -3.148438 C 9.707031 -3.335938 10.035156 -3.667969 10.226562 -3.832031 C 10.367188 -3.972656 10.460938 -3.996094 10.601562 -4.160156 L 11.964844 -5.570312 C 12.058594 -5.6875 12.246094 -5.804688 12.246094 -5.992188 C 12.246094 -6.109375 12.152344 -6.207031 12.035156 -6.207031 C 11.871094 -6.207031 9.542969 -3.902344 9.144531 -3.644531 L 7.804688 -4.914062 C 7.6875 -5.03125 7.6875 -5.078125 7.546875 -5.195312 C 6.605469 -6.136719 5.921875 -7.308594 5.617188 -8.601562 C 5.851562 -8.765625 6.183594 -9.167969 6.417969 -9.402344 C 7.191406 -10.105469 8.039062 -10.742188 8.835938 -11.421875 L 9.753906 -12.246094 C 9.964844 -12.480469 10.152344 -12.691406 10.152344 -13 C 10.152344 -13.304688 9.941406 -13.445312 9.589844 -13.445312 C 8.53125 -13.445312 6.253906 -12.152344 5.40625 -10.742188 C 5.195312 -10.367188 4.984375 -9.871094 4.9375 -9.449219 C 4.84375 -8.886719 5.148438 -9.144531 4.371094 -8.296875 C 3.195312 -7.050781 1.597656 -4.371094 1.597656 -2.820312 Z M 4.230469 -0.539062 L 3.949219 -0.539062 C 2.84375 -0.539062 2.304688 -1.503906 2.304688 -2.679688 C 2.304688 -4.464844 3.902344 -6.675781 5.03125 -7.96875 C 5.101562 -7.261719 6.136719 -5.546875 6.699219 -4.984375 L 7.449219 -4.136719 C 7.710938 -3.855469 8.320312 -3.3125 8.507812 -3.054688 C 8.390625 -2.890625 7.828125 -2.421875 7.640625 -2.257812 C 6.792969 -1.550781 5.429688 -0.539062 4.230469 -0.539062 Z M 5.710938 -9.730469 C 5.851562 -11.023438 8.0625 -12.597656 9.261719 -12.738281 C 9.144531 -12.574219 9.214844 -12.644531 9.050781 -12.550781 L 8.390625 -11.964844 C 7.828125 -11.515625 7.144531 -11 6.628906 -10.507812 Z M 5.710938 -9.730469 "/></g></g></g><g fill="#000000" fill-opacity="1"><g transform="translate(188.431166, 215.630758)"><g/></g></g><g fill="#000000" fill-opacity="1"><g transform="translate(194.516664, 215.630758)"><g><path d="M 10.742188 -4.675781 C 11 -5.195312 12.503906 -7.214844 13 -7.992188 C 14.386719 -10.273438 16.078125 -13.75 15.65625 -16.382812 C 15.441406 -17.628906 14.832031 -18.238281 14.078125 -18.238281 C 12.222656 -18.238281 9.871094 -14.597656 8.886719 -12.953125 C 7.570312 -10.507812 6.371094 -7.734375 5.570312 -5.054688 L 5.242188 -3.996094 C 5.148438 -3.691406 5.078125 -3.21875 4.867188 -2.9375 C 4.867188 -3.3125 4.9375 -3.574219 5.007812 -3.972656 L 5.359375 -7.003906 C 5.570312 -8.414062 5.78125 -9.753906 5.851562 -11.164062 C 5.921875 -11.917969 6.015625 -12.480469 6.015625 -13.28125 C 6.015625 -14.550781 6.183594 -16.242188 5.382812 -17.230469 C 5.171875 -17.511719 4.9375 -17.628906 4.675781 -17.628906 C 3.574219 -17.628906 2.351562 -15.207031 2.019531 -14.503906 L 1.292969 -12.902344 C 0.753906 -11.445312 0.257812 -9.917969 0.09375 -8.34375 C -0.0234375 -7.355469 -0.09375 -6.230469 0.304688 -5.3125 C 0.539062 -4.84375 0.824219 -4.605469 1.316406 -4.605469 C 1.480469 -4.605469 1.691406 -4.628906 1.902344 -4.675781 C 2.117188 -5.617188 1.292969 -4.820312 0.941406 -5.734375 C 0.683594 -6.488281 0.777344 -7.734375 0.894531 -8.578125 C 1.246094 -10.976562 2.234375 -13.539062 3.550781 -15.511719 C 3.785156 -15.9375 4.136719 -16.59375 4.652344 -16.640625 C 4.773438 -16.195312 4.84375 -15.84375 4.9375 -15.324219 C 4.984375 -14.878906 4.9375 -14.148438 4.9375 -13.65625 C 4.9375 -12.691406 4.820312 -11.660156 4.652344 -10.695312 C 4.253906 -6.769531 3.621094 -2.9375 3.265625 1.035156 L 2.820312 5.453125 C 2.773438 6.0625 2.679688 6.394531 3.265625 6.511719 C 3.621094 6.347656 3.644531 6.300781 3.738281 5.898438 L 4.183594 2.914062 C 4.417969 1.644531 4.773438 0.539062 5.078125 -0.683594 C 6.253906 -5.335938 8.8125 -12.785156 12.128906 -16.101562 C 12.550781 -16.523438 13.375 -17.347656 13.960938 -17.347656 C 14.265625 -17.347656 14.527344 -17.113281 14.644531 -16.5 C 15.066406 -14.386719 13.46875 -10.859375 12.738281 -9.542969 C 11.613281 -7.617188 10.320312 -5.96875 9.074219 -4.160156 C 8.910156 -3.949219 8.789062 -3.761719 8.625 -3.527344 C 8.367188 -3.21875 7.6875 -2.304688 8.460938 -2.164062 C 8.53125 -2.164062 8.578125 -2.140625 8.625 -2.140625 C 8.765625 -2.140625 8.789062 -2.210938 8.886719 -2.257812 C 9.941406 -2.9375 10.128906 -3.574219 12.082031 -4.207031 C 12.363281 -4.300781 12.644531 -4.347656 12.878906 -4.347656 C 15.089844 -4.347656 15.207031 -0.632812 14.925781 1.175781 L 14.925781 1.246094 C 14.808594 1.667969 14.433594 1.761719 13.726562 2.164062 C 11.210938 3.621094 9.027344 4.722656 6.675781 6.558594 C 5.640625 7.355469 4.628906 8.4375 4.019531 9.613281 C 2.679688 12.199219 4.042969 14.171875 6.347656 14.171875 C 7.757812 14.171875 9.519531 13.445312 11.234375 11.730469 C 13.632812 9.332031 15.113281 6.207031 15.726562 2.890625 C 16.007812 1.503906 15.726562 2.070312 17.441406 0.800781 C 17.816406 0.515625 18.167969 0.257812 18.5 -0.0703125 L 20.472656 -1.902344 C 20.660156 -2.046875 20.777344 -2.164062 20.917969 -2.351562 C 21.15625 -2.539062 21.203125 -2.65625 21.367188 -2.890625 C 21.578125 -3.054688 21.671875 -3.195312 21.835938 -3.433594 C 22.070312 -3.738281 22.046875 -3.785156 21.953125 -4.160156 C 21.90625 -4.160156 21.859375 -4.160156 21.8125 -4.160156 C 21.203125 -4.160156 21.226562 -3.878906 20.800781 -3.410156 C 20.238281 -2.820312 19.320312 -1.855469 18.734375 -1.363281 L 17.605469 -0.421875 C 17.277344 -0.164062 16.40625 0.609375 16.007812 0.707031 C 16.007812 -1.832031 15.867188 -5.054688 13.09375 -5.265625 C 13.023438 -5.265625 12.953125 -5.289062 12.878906 -5.289062 C 12.105469 -5.289062 11.421875 -4.84375 10.742188 -4.675781 Z M 6.300781 13.375 C 4.324219 13.375 3.550781 11.445312 5.453125 9.003906 C 5.898438 8.4375 6.722656 7.640625 7.261719 7.214844 L 9.332031 5.710938 L 14.714844 2.632812 C 14.714844 3.359375 13.960938 5.59375 13.65625 6.300781 C 12.480469 8.933594 10.90625 11.492188 8.25 12.832031 C 7.78125 13.070312 6.980469 13.375 6.300781 13.375 Z M 6.300781 13.375 "/></g></g></g><g fill="#000000" fill-opacity="1"><g transform="translate(215.545719, 215.630758)"><g><path d="M 1.175781 -0.539062 C 0.65625 -1.621094 1.738281 -3.738281 1.902344 -4.417969 C 2.726562 -3.878906 2.140625 -0.800781 1.175781 -0.539062 Z M 0 -1.339844 C 0 -0.117188 0.515625 0.492188 1.128906 0.492188 C 1.832031 0.492188 2.703125 -0.328125 3.054688 -1.949219 C 3.574219 -4.371094 2.445312 -4.773438 2.328125 -5.21875 C 2.445312 -5.40625 2.65625 -5.546875 2.726562 -5.710938 C 2.796875 -5.898438 2.65625 -6.277344 2.351562 -6.277344 C 1.199219 -6.277344 0 -2.398438 0 -1.339844 Z M 0 -1.339844 "/></g></g></g><g fill="#000000" fill-opacity="1"><g transform="translate(219.681042, 215.630758)"><g><path d="M 0.0234375 -2.867188 C 0.0234375 -2.070312 -0.09375 -0.917969 0.988281 -0.917969 C 1.714844 -0.917969 2.820312 -2.703125 3.195312 -3.359375 C 3.335938 -3.621094 3.667969 -4.160156 3.855469 -4.277344 C 3.855469 -3.148438 3.949219 -1.199219 5.5 -1.199219 C 6.207031 -1.199219 6.980469 -1.691406 7.617188 -2.28125 C 7.898438 -2.539062 8.980469 -3.433594 8.980469 -3.832031 C 8.980469 -4.089844 8.789062 -4.136719 8.601562 -4.136719 C 8.15625 -4.136719 6.605469 -1.949219 5.570312 -1.949219 C 5.125 -1.949219 4.773438 -2.351562 4.628906 -3.480469 C 4.558594 -4.089844 4.867188 -5.640625 4.230469 -5.640625 C 3.785156 -5.640625 3.644531 -5.265625 3.335938 -4.820312 L 1.925781 -2.75 C 1.691406 -2.445312 1.433594 -1.996094 1.058594 -1.878906 C 0.707031 -3.457031 2.140625 -5.921875 2.140625 -6.015625 C 2.140625 -6.230469 2.070312 -6.230469 2.046875 -6.394531 C 1.878906 -6.488281 1.738281 -6.511719 1.621094 -6.511719 C 1.433594 -6.511719 1.269531 -6.417969 1.105469 -6.230469 C 0.515625 -5.476562 0.0234375 -3.878906 0.0234375 -2.867188 Z M 0.0234375 -2.867188 "/></g></g></g><g fill="#000000" fill-opacity="1"><g transform="translate(227.622737, 215.630758)"><g><path d="M -6.605469 -10.484375 C -6.605469 -10.152344 -6.371094 -10.082031 -6.109375 -10.082031 C -5.96875 -10.082031 -5.828125 -10.105469 -5.710938 -10.128906 C -5.5 -10.578125 -5.734375 -10.484375 -5.148438 -10.71875 C -4.867188 -10.835938 -4.652344 -11 -4.371094 -11.117188 C -2.914062 -11.683594 -1.574219 -12.082031 -0.0234375 -12.457031 C 0.210938 -12.527344 0.753906 -12.621094 0.894531 -12.667969 L 0.683594 -10.484375 C 0.65625 -10.175781 0.632812 -9.660156 0.585938 -9.355469 C 0.46875 -8.671875 0.445312 -5.5 0.445312 -4.605469 L 0.375 -3.503906 C 0.375 -1.785156 0.304688 1.011719 0.445312 2.703125 C 0.445312 3.265625 0.46875 4.113281 1.082031 4.113281 C 1.691406 4.113281 1.339844 2.492188 1.339844 1.949219 C 1.292969 0.917969 1.316406 -3.785156 1.386719 -4.488281 C 1.433594 -4.984375 1.386719 -6.039062 1.386719 -6.722656 C 1.386719 -7.050781 1.457031 -7.050781 1.457031 -7.355469 C 1.457031 -7.59375 1.433594 -7.875 1.457031 -8.085938 L 1.925781 -12.902344 C 2.492188 -13.023438 6.0625 -13.703125 7.355469 -13.703125 C 7.523438 -13.703125 7.640625 -13.703125 7.734375 -13.679688 C 8.015625 -13.609375 7.945312 -13.703125 8.015625 -13.46875 C 8.910156 -13.46875 8.625 -14.410156 7.523438 -14.410156 C 6.085938 -14.410156 4.699219 -14.171875 3.335938 -13.914062 C 2.984375 -13.867188 2.492188 -13.726562 2.117188 -13.726562 C 2.117188 -14.480469 2.585938 -13.867188 2.585938 -14.480469 C 2.585938 -14.621094 2.5625 -14.714844 2.5625 -14.785156 C 2.539062 -15.019531 2.585938 -14.832031 2.585938 -15.113281 C 2.585938 -15.488281 2.398438 -15.796875 2.140625 -15.796875 C 1.832031 -15.796875 1.457031 -15.371094 1.222656 -14.101562 C 1.058594 -13.304688 1.128906 -13.515625 0.140625 -13.257812 C -1.199219 -12.878906 -6.605469 -11.539062 -6.605469 -10.484375 Z M -6.605469 -10.484375 "/></g></g></g><g fill="#000000" fill-opacity="1"><g transform="translate(230.348296, 215.630758)"><g><path d="M 1.949219 0.09375 C 3.054688 0.09375 3.949219 -0.941406 4.511719 -1.527344 C 4.890625 -1.902344 6.300781 -3.480469 6.300781 -3.925781 C 6.300781 -4.136719 6.230469 -4.207031 6.136719 -4.207031 C 5.6875 -4.207031 4.441406 -2.539062 4.347656 -2.421875 C 3.996094 -1.972656 2.773438 -0.730469 2.019531 -0.730469 C 1.386719 -0.730469 1.128906 -2.117188 1.128906 -2.820312 C 1.128906 -5.21875 2.070312 -6.277344 0.988281 -6.277344 C 0.515625 -6.277344 0.28125 -5.21875 0.210938 -4.722656 C -0.046875 -3.527344 0 -1.902344 0.5625 -0.847656 C 0.824219 -0.398438 1.316406 0.09375 1.949219 0.09375 Z M 1.199219 -9.238281 C 1.199219 -8.71875 1.503906 -8.484375 1.832031 -8.484375 C 2.304688 -8.484375 2.796875 -9.003906 2.351562 -9.871094 C 2.210938 -10.128906 2.046875 -10.226562 1.878906 -10.226562 C 1.527344 -10.226562 1.199219 -9.777344 1.199219 -9.238281 Z M 1.199219 -9.238281 "/></g></g></g><g fill="#000000" fill-opacity="1"><g transform="translate(235.705424, 215.630758)"><g><path d="M -0.375 -1.363281 C -0.375 -0.824219 -0.375 0.257812 0.398438 0.257812 C 1.269531 0.257812 2.164062 -1.292969 2.84375 -2.140625 C 3.078125 -2.445312 3.3125 -2.75 3.621094 -2.984375 C 3.21875 -1.246094 2.9375 -0.609375 2.632812 1.386719 C 2.539062 2.09375 1.246094 9.824219 3.457031 9.824219 C 4.582031 9.824219 5.125 7.96875 5.59375 6.792969 C 6.324219 4.914062 6.886719 3.242188 7.710938 1.292969 L 8.507812 -0.46875 C 8.671875 -0.894531 10.152344 -3.644531 10.152344 -3.925781 C 10.152344 -4.230469 10.105469 -4.230469 9.800781 -4.230469 C 8.742188 -4.230469 4.773438 6.839844 4.488281 7.5 C 4.253906 8.039062 3.972656 8.695312 3.527344 9.003906 C 2.445312 6.957031 4.347656 -0.871094 4.914062 -3.644531 C 5.007812 -4.136719 5.265625 -5.007812 4.464844 -5.007812 C 3.785156 -5.007812 1.292969 -0.964844 0.5625 -0.777344 C 0.5625 -2.679688 2.914062 -6.699219 3.949219 -6.699219 C 4.230469 -6.699219 4.207031 -6.441406 4.535156 -6.347656 C 4.582031 -6.347656 4.605469 -6.324219 4.652344 -6.324219 C 5.3125 -6.324219 5.195312 -7.828125 3.785156 -7.828125 C 1.996094 -7.828125 -0.375 -3.382812 -0.375 -1.363281 Z M -0.375 -1.363281 "/></g></g></g><g fill="#000000" fill-opacity="1"><g transform="translate(244.845431, 215.630758)"><g><path d="M 0.0234375 -2.867188 C 0.0234375 -2.070312 -0.09375 -0.917969 0.988281 -0.917969 C 1.714844 -0.917969 2.820312 -2.703125 3.195312 -3.359375 C 3.335938 -3.621094 3.667969 -4.160156 3.855469 -4.277344 C 3.855469 -3.148438 3.949219 -1.199219 5.5 -1.199219 C 6.207031 -1.199219 6.980469 -1.691406 7.617188 -2.28125 C 7.898438 -2.539062 8.980469 -3.433594 8.980469 -3.832031 C 8.980469 -4.089844 8.789062 -4.136719 8.601562 -4.136719 C 8.15625 -4.136719 6.605469 -1.949219 5.570312 -1.949219 C 5.125 -1.949219 4.773438 -2.351562 4.628906 -3.480469 C 4.558594 -4.089844 4.867188 -5.640625 4.230469 -5.640625 C 3.785156 -5.640625 3.644531 -5.265625 3.335938 -4.820312 L 1.925781 -2.75 C 1.691406 -2.445312 1.433594 -1.996094 1.058594 -1.878906 C 0.707031 -3.457031 2.140625 -5.921875 2.140625 -6.015625 C 2.140625 -6.230469 2.070312 -6.230469 2.046875 -6.394531 C 1.878906 -6.488281 1.738281 -6.511719 1.621094 -6.511719 C 1.433594 -6.511719 1.269531 -6.417969 1.105469 -6.230469 C 0.515625 -5.476562 0.0234375 -3.878906 0.0234375 -2.867188 Z M 0.0234375 -2.867188 "/></g></g></g><g fill="#000000" fill-opacity="1"><g transform="translate(252.787126, 215.630758)"><g><path d="M 1.082031 -4.253906 C 1.246094 -4.84375 2.019531 -5.757812 2.65625 -5.875 C 2.585938 -5.125 1.667969 -4.558594 1.082031 -4.253906 Z M 0.0234375 -3.691406 C 0.0234375 -3.03125 0 -2.445312 0.5625 -1.878906 C 0.964844 -1.480469 1.433594 -1.316406 1.925781 -1.316406 C 3.359375 -1.316406 4.984375 -2.75 5.851562 -3.621094 C 6.0625 -3.878906 6.0625 -3.902344 5.992188 -4.253906 C 5.289062 -4.253906 5.664062 -4.160156 4.699219 -3.410156 C 4.535156 -3.289062 4.464844 -3.195312 4.277344 -3.054688 C 3.808594 -2.703125 2.820312 -2.019531 1.996094 -2.019531 C 1.714844 -2.019531 1.433594 -2.117188 1.222656 -2.328125 C 0.824219 -2.726562 0.871094 -3.101562 0.871094 -3.597656 C 1.597656 -3.644531 2.445312 -4.324219 2.820312 -4.746094 C 3.550781 -5.664062 3.550781 -6.605469 2.515625 -6.605469 C 1.386719 -6.605469 0.0234375 -4.867188 0.0234375 -3.691406 Z M 0.0234375 -3.691406 "/></g></g></g><path stroke-linecap="round" transform="matrix(0.746501, 0, 0, 0.75, 72.533942, 212.124668)" fill="none" stroke-linejoin="miter" d="M 0.498737 0.500443 L 49.738892 0.500443 " stroke="#000000" stroke-width="1" stroke-opacity="1" stroke-miterlimit="4"/><path stroke-linecap="round" transform="matrix(0.746501, 0, 0, 0.75, 264.785406, 212.97403)" fill="none" stroke-linejoin="miter" d="M 0.502009 0.498168 L 49.742164 0.498168 " stroke="#000000" stroke-width="1" stroke-opacity="1" stroke-miterlimit="4"/></svg>